<?xml version="1.0" encoding="UTF-8"?>
<svg xmlns="http://www.w3.org/2000/svg" viewBox="2050 2850 3200 1500" width="306.51" height="305.09" fill="#FF6600">
    <g fill="#FF6600">
        <g>
            <path d="M3545 5064 c-61 -85 -230 -243 -334 -313 -122 -81 -264 -148 -421 -200 -162 -53 -266 -71 -480 -85 l-175 -11 -7 -47 c-5 -25 -7 -241 -6 -480 l3 -433 129 -3 c336 -7 713 131 1015 372 96 77 214 198 260 266 37 57 39 64 45 162 4 57 9 220 11 363 2 143 4 268 4 278 1 9 8 17 16 17 10 0 14 -11 13 -42 -1 -24 3 -195 7 -381 l8 -338 45 -67 c56 -86 269 -296 395 -390 53 -41 166 -117 250 -169 371 -232 527 -367 607 -527 23 -46 30 -73 30 -118 0 -100 -38 -144 -190 -225 -92 -49 -108 -71 -50 -65 106 11 266 68 351 124 98 65 129 136 111 247 -14 84 -59 174 -121 241 -28 30 -50 58 -51 62 0 4 -46 46 -102 93 -57 48 -104 91 -106 95 -2 5 58 6 133 3 111 -5 139 -3 146 8 5 8 9 226 9 485 l0 471 -167 7 c-256 11 -426 43 -628 120 -82 32 -230 108 -307 159 -117 78 -284 239 -357 345 -12 17 -28 32 -34 32 -7 0 -30 -25 -52 -56z"/>
            <path d="M3936 3653 c-3 -3 -3 -49 0 -102 l7 -96 -347 0 c-190 -1 -346 2 -346 5 2 26 21 158 26 172 12 38 -37 18 -98 -39 -63 -61 -88 -98 -88 -132 0 -11 -8 -24 -17 -30 -26 -13 -265 -48 -423 -61 -74 -6 -144 -12 -155 -13 -19 -2 -20 -10 -23 -122 -4 -139 7 -220 50 -360 69 -229 204 -421 398 -569 294 -225 683 -296 1020 -186 182 60 329 151 475 295 112 110 137 140 188 231 68 120 136 336 123 387 -7 31 -116 141 -127 130 -5 -5 -14 -38 -20 -74 -15 -92 -45 -204 -75 -276 -15 -35 -28 -63 -30 -63 -2 0 -36 11 -76 24 -40 14 -122 35 -183 47 -60 12 -112 26 -115 30 -3 5 0 59 7 121 6 62 12 155 13 206 0 78 2 92 16 92 21 0 119 -16 248 -41 104 -20 156 -24 156 -11 0 7 -10 13 -105 70 -92 55 -203 107 -259 122 -55 14 -61 18 -67 47 -8 40 -30 74 -88 136 -48 52 -74 70 -85 60z m-11 -362 l30 -6 -1 -170 c-1 -94 -6 -188 -11 -210 -10 -46 13 -43 -234 -30 -98 5 -193 4 -288 -5 -78 -6 -145 -9 -148 -6 -17 17 -41 351 -29 399 5 23 12 26 59 30 92 6 591 5 622 -2z m-835 -203 c7 -101 14 -196 14 -213 l1 -30 -133 -27 c-73 -14 -153 -33 -179 -42 -62 -21 -60 -22 -79 22 -49 116 -84 274 -84 378 l0 42 73 7 c39 4 133 15 207 25 74 10 142 18 151 19 13 1 18 -27 29 -181z m753 -374 c47 -6 57 -10 57 -25 0 -31 -40 -138 -86 -231 -103 -211 -189 -278 -275 -217 -41 29 -110 129 -162 235 -44 92 -85 219 -74 230 20 20 381 25 540 8z m-693 -66 c25 -101 82 -240 126 -310 26 -40 31 -68 13 -68 -24 0 -184 82 -243 124 -113 81 -236 211 -222 235 10 15 200 54 293 60 18 1 24 -7 33 -41z m1094 15 c86 -19 136 -40 136 -56 -1 -30 -156 -172 -268 -243 -96 -62 -212 -110 -212 -87 0 3 13 27 29 52 38 59 92 185 121 284 l23 78 51 -6 c28 -4 82 -14 120 -22z"/>
        </g>
    </g>
</svg>